<svg xmlns="http://www.w3.org/2000/svg" width="24" height="24" fill="none" viewBox="0 0 24 24" id="crunchyroll"><path fill="#FF884D" d="M14 7.25C10.2721 7.25 7.25 10.2721 7.25 14C7.25 17.7279 10.2721 20.75 14 20.75C17.7279 20.75 20.75 17.7279 20.75 14C20.75 13.3095 20.6461 12.6418 20.4525 12.0126C20.3607 11.7145 20.094 11.5042 19.7827 11.4847C19.4714 11.4651 19.1804 11.6403 19.0521 11.9246C18.6986 12.7075 17.9118 13.25 17 13.25C15.7574 13.25 14.75 12.2426 14.75 11C14.75 10.0882 15.2925 9.30144 16.0754 8.94793C16.3597 8.81956 16.5349 8.52862 16.5153 8.2173C16.4958 7.90597 16.2855 7.63926 15.9874 7.54753C15.3582 7.35393 14.6905 7.25 14 7.25Z"></path><path fill="#FF884D" d="M12 1.25C6.06294 1.25 1.25 6.06294 1.25 12C1.25 17.2118 4.95813 21.5559 9.87964 22.5408C10.2575 22.6164 10.6312 22.3934 10.744 22.0249C10.8568 21.6564 10.6719 21.2624 10.3165 21.1136C7.33931 19.8671 5.25 16.9267 5.25 13.5C5.25 8.94365 8.94365 5.25 13.5 5.25C16.9267 5.25 19.8671 7.33931 21.1136 10.3165C21.2624 10.6719 21.6564 10.8568 22.0249 10.744C22.3934 10.6312 22.6164 10.2575 22.5408 9.87964C21.5559 4.95813 17.2118 1.25 12 1.25Z"></path></svg>