<?xml version="1.0" encoding="utf-8"?>
<!-- Generator: Adobe Illustrator 26.0.3, SVG Export Plug-In . SVG Version: 6.00 Build 0)  -->
<svg version="1.0" id="Layer_1" xmlns="http://www.w3.org/2000/svg" xmlns:xlink="http://www.w3.org/1999/xlink" x="0px" y="0px"
	 viewBox="0 0 912 608.7" style="enable-background:new 0 0 912 608.7;" xml:space="preserve">
<style type="text/css">
	.st0{fill:#F47521;}
</style>
<path class="st0" d="M816.2,343.4v-84.3H831v84.4h-14.8V343.4z"/>
<path class="st0" d="M784.2,343.4v-84.3H799v84.4h-14.8V343.4z"/>
<path class="st0" d="M771.7,313c0,20.3-10.2,31.2-28.9,31.2s-28.9-11-28.9-31.2s10.2-31.2,28.9-31.2S771.7,292.7,771.7,313z
	 M757.6,313c0-16.4-5.5-19.5-14.1-19.5s-14.1,3.1-14.1,19.5s5.5,19.5,14.1,19.5C751.3,332.5,757.6,329.5,757.6,313z"/>
<path class="st0" d="M707.6,281.8v12.5c-7.8,0-17.2,0-17.2,3.9v45.4h-14.8v-54C676.3,280.2,707.6,281.8,707.6,281.8z"/>
<path class="st0" d="M618.5,367.7c11-27.3,10.2-25,11-27.3l-21.9-57.8h15.7l14.1,42.1l13.2-42.1h15.7L642.9,345l-8.6,22.7
	L618.5,367.7z"/>
<path class="st0" d="M599,306.8v36.8h-14.8v-37.6c0-5.5-1.6-10.9-14.8-10.9c-3.4,0.1-6.9,0.6-10.2,1.6v46.9h-14.8v-84.4h14.8v24.2
	c3.9-1.7,8.2-2.5,12.5-2.3C589.6,281.8,599,291.1,599,306.8z"/>
<path class="st0" d="M517,331.8c5.4-0.2,10.7-1.3,15.7-3.2v12.5c-5.7,2.3-11.8,3.3-18,3.1c-18.8,0-28.9-10.9-28.9-31.2
	s10.2-32,28.9-32c6.1,0.2,12.2,1.3,18,3.2v12.5c-5-1.9-10.3-3-15.7-3.1c-10.2,0-16.4,3.1-16.4,18.8
	C500.6,328.6,506.9,331.8,517,331.8z"/>
<path class="st0" d="M476.3,305.2v38.2h-14.1v-38.2c0-5.5,0-10.9-12.5-10.9c-3.9,0-11.8,0.7-11.8,3.1v46.1h-14.1v-50.7
	c0-10.2,12.5-11.8,28.1-11.8C467.8,281.8,476.3,288,476.3,305.2z"/>
<path class="st0" d="M409.9,282.5v33.6c0,18-6.2,28.9-27.3,28.9S356,334.1,356,316.1v-33.6h14.1v35.2c0,10.2,3.9,13.2,12.5,13.2
	s12.5-3.1,12.5-13.2v-35.2H409.9z"/>
<path class="st0" d="M344.4,281.8v12.5c-7.9,0-17.2,0-17.2,3.9v45.4h-14.8v-54C313.1,280.2,344.4,281.8,344.4,281.8z"/>
<path class="st0" d="M283.3,331.8c5.1-0.1,10.1-1.2,14.8-3.2v12.5c-5.7,2.3-11.8,3.3-18,3.1c-18.8,0-28.9-10.9-28.9-31.2
	s10.2-32,28.9-32c6.1,0.2,12.2,1.3,18,3.2v12.5c-4.7-1.9-9.7-2.9-14.8-3.1c-10.2,0-16.4,3.1-16.4,18.8
	C266.2,328.6,273.3,331.8,283.3,331.8z"/>
<path class="st0" d="M98.3,313c0-34.1,27.7-61.8,61.9-61.7c32.2,0,59,24.8,61.5,57v-3.9c0-38.9-31.5-70.4-70.3-70.4
	S81,265.5,81,304.3s31.5,70.4,70.3,70.4c0,0,0,0,0,0h4.7C123.6,372.4,98.4,345.5,98.3,313z"/>
<path class="st0" d="M193.5,316.1c-12.5,0.1-22.6-10-22.7-22.4c-0.1-9.5,5.9-18.1,14.8-21.3c-7-3.7-14.8-5.6-22.7-5.5
	c-27.2,0-49.3,22-49.3,49.3c0,27.2,22,49.3,49.3,49.3c27.2,0,49.3-22,49.3-49.3c0,0,0,0,0,0l0,0c0.1-3.2-0.1-6.3-0.7-9.4
	C207.7,312.9,200.8,316.5,193.5,316.1z"/>
</svg>
